<?xml version="1.0" encoding="UTF-8" standalone="no"?>
<!-- Created with Inkscape (http://www.inkscape.org/) -->

<svg
   xmlns:dc="http://purl.org/dc/elements/1.1/"
   xmlns:cc="http://creativecommons.org/ns#"
   xmlns:rdf="http://www.w3.org/1999/02/22-rdf-syntax-ns#"
   xmlns:svg="http://www.w3.org/2000/svg"
   xmlns="http://www.w3.org/2000/svg"
   xmlns:sodipodi="http://sodipodi.sourceforge.net/DTD/sodipodi-0.dtd"
   xmlns:inkscape="http://www.inkscape.org/namespaces/inkscape"
   width="200"
   height="200"
   id="svg4209"
   version="1.1"
   inkscape:version="0.48.1 r9760"
   sodipodi:docname="simple-globe.svg">
  <defs
     id="defs4211" />
  <sodipodi:namedview
     id="base"
     pagecolor="#ffffff"
     bordercolor="#666666"
     borderopacity="1.0"
     inkscape:pageopacity="0.0"
     inkscape:pageshadow="2"
     inkscape:zoom="1.7460215"
     inkscape:cx="107.38112"
     inkscape:cy="91.615764"
     inkscape:document-units="px"
     inkscape:current-layer="layer1"
     showgrid="false"
     fit-margin-top="5"
     fit-margin-left="0"
     fit-margin-right="0"
     fit-margin-bottom="0"
     inkscape:window-width="774"
     inkscape:window-height="756"
     inkscape:window-x="194"
     inkscape:window-y="222"
     inkscape:window-maximized="0" />
  <metadata
     id="metadata4214">
    <rdf:RDF>
      <cc:Work
         rdf:about="">
        <dc:format>image/svg+xml</dc:format>
        <dc:type
           rdf:resource="http://purl.org/dc/dcmitype/StillImage" />
        <dc:title></dc:title>
      </cc:Work>
    </rdf:RDF>
  </metadata>
  <g
     inkscape:label="Layer 1"
     inkscape:groupmode="layer"
     id="layer1"
     transform="translate(-267.61887,-423.97795)">
    <path
       style="fill:#838383;fill-opacity:1;stroke:none"
       d="m 353.41564,441.92419 c -19.51093,2.60263 -36.64168,12.69485 -48.41041,27.3118 l 21.15625,0 c 6.82047,-12.32814 16.12504,-22.39215 27.25553,-26.269 0.62718,-0.22613 3.89541,-1.53688 -10e-4,-1.0428 z m 20.00904,1.02759 c 10.99533,3.81211 20.21118,13.66184 27.01389,25.77224 0.30717,0.52674 0.3404,0.51197 0.99493,0.51197 l 19.50062,0 c 0.59201,0.003 0.64973,-0.31689 0.50279,-0.54538 -11.76385,-14.33496 -28.72945,-24.21358 -48.01773,-26.77315 -2.89099,-0.28036 -2.0947,0.36644 0.006,1.03432 z m -8.09351,0.33785 c -0.48767,0 -0.88844,0.40667 -0.88844,0.91511 l 0,24.03385 c 0.0257,0.69143 0.2944,0.97487 1.00441,0.9974 l 32.00722,0 c 0.84304,-0.007 0.47446,-0.7324 0.40281,-0.97553 -6.23322,-10.80352 -14.80473,-20.11127 -26.78944,-23.96197 -1.81413,-0.58288 -3.71189,-0.87216 -5.625,-1 -0.0423,-0.006 -0.0675,-0.009 -0.11156,-0.009 z m -3.88844,0.0401 c -14.86444,1.27657 -25.74692,13.19781 -32.96875,25.90625 l 33.0084,0 c 0.70387,-0.0258 0.92804,-0.3551 0.96035,-1.03044 l 0,-24.00081 c 0,-0.4969 -0.38733,-0.875 -0.875,-0.875 z m -58.7342,28.90085 c -5.58081,7.69293 -9.71441,16.48922 -12.05625,25.99789 -0.29769,0.96182 0.0648,1.00751 0.79058,1.00751 l 23.00715,0 c 1.06089,-0.005 0.86316,-0.28329 1.00848,-0.9836 1.86055,-8.78773 4.9625,-17.81173 9.13574,-26.03567 0.81848,-1.10599 0.1757,-0.99235 -0.14344,-0.98073 l -20.44882,0 c -0.6986,-0.0126 -0.93549,0.50765 -1.29344,0.9946 z m 24.10047,0.0286 c -0.74074,1.42418 -1.43474,2.84504 -2.08502,4.25804 -3.25709,6.91703 -5.72152,14.22642 -7.2648,21.70231 -0.29435,1.11362 -0.0419,0.99811 0.49736,1.01644 l 43.49175,0 c 0.78763,-0.0138 1.02069,-0.16184 0.99444,-1.00668 l 0,-25.99292 c -0.0165,-0.64806 -0.33084,-0.99836 -0.99339,-1.0004 l -33.00898,0 c -1.03962,-0.004 -1.22036,0.24165 -1.63136,1.02321 z m 37.63373,-0.0118 0,25.99981 c 0.0117,0.88095 0.31425,0.98527 0.99514,0.98878 l 43.68854,0 c 0.40825,-0.0171 0.58501,-0.15004 0.39166,-1.00247 -0.75602,-3.56635 -1.75603,-7.09546 -3.01284,-10.56003 -1.74838,-5.11174 -3.86949,-10.38677 -6.45441,-15.44556 -0.41195,-0.84966 -0.50612,-0.99069 -1.13987,-0.99194 l -33.4528,0 c -0.64901,-0.003 -0.98314,0.33892 -1.01542,1.01141 z m 37.85953,-0.009 c 4.17854,8.23953 7.28195,17.28097 9.13922,26.08262 0.18596,0.94408 0.38786,0.89527 0.83365,0.91492 l 23.57965,0 c 0.72726,0.006 0.56924,-0.2131 0.3805,-0.999 -2.34143,-9.5118 -6.47576,-18.31092 -12.05811,-26.00607 -0.58022,-0.79943 -0.77739,-0.98459 -1.2572,-0.99493 l -20.46671,0 c -0.79933,-1.6e-4 -0.31209,0.79017 -0.151,1.00246 z m -112.55228,29.98176 c -0.85725,4.53851 -1.30725,9.22941 -1.30725,14.01583 0,4.79202 0.44575,9.46215 1.30423,14.00207 0.18498,0.85436 0.44114,0.98048 0.69403,0.99793 l 24.00902,0 c 0.38791,-0.0184 0.3429,-0.49458 0.24784,-1.03899 -0.82486,-4.84954 -1.25512,-9.56187 -1.25512,-13.96101 0,-4.41575 0.43352,-9.14706 1.26448,-14.01595 0.31115,-1.00787 0.0585,-1.00294 -0.23931,-0.98405 l -24.02691,0 c -0.56725,-0.007 -0.64723,0.64216 -0.69101,0.98417 z m 26.99702,-1.3e-4 c -1.49905,9.2686 -1.6141,18.73765 -0.13087,27.99437 0.0672,1.00154 0.24506,1.02089 0.82159,1.02159 l 44.02846,0 c 0.73699,-0.0249 1.00188,-0.40394 0.97655,-1.00061 l 0,-27.9986 c -0.0279,-0.86967 -0.27738,-0.98692 -0.99444,-1.00079 l -43.99268,0 c -0.55145,0.0229 -0.60164,0.34054 -0.70861,0.98404 z m 47.69573,0.0346 0,27.96282 c 0.0346,0.64855 0.28339,1.08289 1.03092,1.0185 l 43.99268,0 c 0.67854,-0.0302 0.5474,-0.41892 0.64419,-0.99768 1.5083,-9.27475 1.61024,-18.73447 0.12406,-28.00136 -0.14677,-0.848 -0.26385,-0.9996 -0.76825,-1.00096 l -44.02846,0 c -0.83829,-0.008 -0.99054,0.27062 -0.99514,1.01868 z m 47.738,-0.0201 c 0.82935,4.86377 1.262,9.59006 1.262,14.00141 0,4.40525 -0.43146,9.12457 -1.25856,13.98124 -0.32362,0.99448 -0.11471,1.00797 0.25198,1.01876 l 24.00902,0 c 0.56569,-0.0103 0.5747,-0.38945 0.69008,-0.98078 0.86061,-4.54526 1.30748,-9.22111 1.30748,-14.01917 0,-4.78752 -0.45021,-9.47948 -1.30784,-14.01897 -0.31185,-1.23984 -0.36461,-0.98526 -0.68972,-0.98103 l -23.99113,0 c -0.51519,-0.002 -0.37339,0.42624 -0.27331,0.99859 z m -121.53216,31.99212 c 2.35016,9.53533 6.50659,18.37761 12.11197,26.08624 0.50158,0.60656 0.72972,0.713 1.69174,0.92305 l 19.41208,0 c 0.89274,0.0336 1.05013,-0.0574 0.72661,-0.98716 -4.17099,-8.22103 -7.27152,-17.2412 -9.13167,-26.02545 -0.13881,-0.84981 -0.3892,-0.9695 -0.97351,-0.98739 l -23.02504,0 c -0.75451,0.0132 -1.02501,0.10587 -0.81218,0.99071 z m 26.74573,-0.008 c 0.75293,3.56601 1.7345,7.08633 2.98593,10.54823 1.75735,5.1169 3.88269,10.38096 6.46568,15.43813 0.40054,0.69635 0.502,0.74086 1.35449,1.03062 l 33.25403,0 c 0.76348,0.0621 1.01169,-0.16132 0.9883,-1.07363 l 0,-25.93741 c -0.0272,-0.48179 -0.12293,-0.92932 -0.99444,-0.98896 l -43.52753,0 c -0.68323,0.0236 -0.66069,0.33168 -0.52646,0.98302 z m 47.04843,0.006 0,26.00406 c -0.0685,0.75331 0.31584,1.05384 1.04754,1.00698 l 32.92049,0 c 1.00023,-0.0429 1.31365,-0.4165 1.58047,-0.96686 4.32401,-8.18914 7.53648,-16.99896 9.41037,-26.05325 0.28744,-1.08924 0.016,-0.95853 -0.50777,-0.97989 l -43.45596,0 c -0.6712,0.0128 -1.03918,0.30861 -0.99514,0.98896 z m 46.98346,-0.002 c -1.84236,8.70027 -4.90148,17.63197 -9.01229,25.78945 -0.62454,0.97583 -0.46065,1.22659 0.7665,1.2233 l 19.27866,0 c 1.11361,0.0204 1.51409,-0.64438 1.81557,-1.12968 5.52564,-7.65422 9.62703,-16.41645 11.95711,-25.85874 0.33844,-1.19845 -0.002,-1.0139 -0.39485,-1.01158 l -23.61543,0 c -0.7685,0.0199 -0.65781,0.32492 -0.79527,0.98725 z m -105.51575,30.0777 c 11.74716,14.04315 28.52514,23.72585 47.5713,26.25525 3.88355,0.3951 4.55159,0.0904 -0.0231,-1.03522 -10.83846,-3.75888 -19.94783,-13.38468 -26.72095,-25.25861 -0.33731,-0.56502 -0.69078,-0.95905 -1.40578,-1.02576 l -18.81171,0 c -0.87684,0.0556 -0.99031,0.15457 -0.60979,1.06434 z m 23.12788,-0.0715 c 6.21268,10.76018 14.76925,20.03673 26.77941,23.94464 1.87012,0.5661 3.74517,0.88661 5.60294,1.0125 0.90865,-0.0575 0.86006,-0.19183 1.02206,-0.93985 l 0,-23.98159 c 0.0223,-0.6583 -0.31074,-1.00569 -1,-1.04138 l -31.97488,0.0124 c -0.91903,0.12941 -0.96622,0.1279 -0.42953,0.99325 z m 35.40441,0.002 0,24.01494 c -0.0309,0.83925 0.1832,0.98051 1.04633,0.9199 11.85722,-1.02698 22.74748,-9.90868 29.14117,-19.8988 1.0471,-1.55908 2.03403,-3.14778 2.98533,-4.7661 0.34653,-0.56043 0.53963,-1.20399 -0.93921,-1.26515 l -31.21943,0 c -0.62394,-0.0358 -1.01202,0.23161 -1.01419,0.99521 z m 35.73188,-0.0166 c -6.77942,11.90179 -15.90452,21.55195 -26.76478,25.31163 -2.44591,0.65095 -5.12805,1.67612 0.0193,1.02595 18.76152,-2.49813 35.32048,-11.93762 47.03544,-25.64812 0.92972,-1.26462 0.95998,-1.63473 -0.007,-1.66808 l -18.47817,0 c -1.27096,0.0715 -1.50626,0.3857 -1.80504,0.97862 z"
       id="path3882"
       inkscape:connector-curvature="0"
       sodipodi:nodetypes="ccccccccccccccccccccscccccccccccccccccccccccccccccccccccccccccccccccccsccccccccccccccccccccccccccccsccccccccccccccccccccccccccccccccccccccccccccccccccccccccccccccccccccccccccccc" />
    <path
       inkscape:connector-curvature="0"
       style="fill:#4d4d4d;fill-opacity:1;stroke:none"
       d="m 432.66148,482.57974 c 0.96481,2.12207 1.81727,4.26592 2.6875,6.375 0.002,0.004 0.0297,-0.004 0.0312,0 3.99578,0.42021 7.81238,1.38279 10.8125,4 1.17469,3.67338 -3.12822,7.33212 -5.75,9.6875 -28.8468,20.67449 -63.79561,31.3474 -98.5,37.78125 -19.10334,2.6318 -39.12926,7.28291 -57.9375,0.96875 -3.25303,-0.0557 -5.03178,-3.23987 -3,-5.875 2.10092,-2.18864 4.29636,-4.20863 6.59375,-6.125 -0.64918,-2.29396 -0.90933,-4.74243 -1,-7.21875 -9.13208,6.68297 -13.8344,13.09345 -12.4375,18.25 3.61022,13.32677 46.50343,13.29533 95.8125,-0.0625 49.30906,-13.35778 86.36021,-34.98572 82.75,-48.3125 -1.4013,-5.17275 -8.74302,-8.32069 -20.0625,-9.46875 z"
       id="path4024" />
    <g
       id="g4192"
       transform="translate(131.31141,-113.97707)">
      <path
         transform="matrix(0.75775237,-0.43748852,0.43748852,0.75775237,-997.83154,866.12506)"
         d="m 1430,469.36218 c 0,24.85282 -20.1472,45 -45,45 -24.8528,0 -45,-20.14718 -45,-45 0,-24.85281 20.1472,-45 45,-45 24.8528,0 45,20.14719 45,45 z"
         sodipodi:ry="45"
         sodipodi:rx="45"
         sodipodi:cy="469.36218"
         sodipodi:cx="1385"
         id="path2839"
         style="fill:#cccccc;fill-opacity:0.67619048;stroke:none"
         sodipodi:type="arc" />
      <path
         inkscape:connector-curvature="0"
         id="path2841"
         d="m 233.81474,575.71261 c -22.1688,12.79917 -29.77314,41.17898 -16.97398,63.34777 11.36605,19.68658 35.01614,27.88167 55.69524,20.50813 1.62703,3.14219 34.28278,66.21519 34.33596,66.30731 1.5999,2.7711 7.47806,2.376 13.12802,-0.88599 5.64995,-3.262 8.93118,-8.15512 7.3313,-10.9262 l -40.25583,-62.88948 c 16.72522,-14.22186 21.45312,-38.80096 10.08706,-58.48755 -12.79916,-22.16881 -41.17896,-29.77314 -63.34777,-16.97399 z m 3.49991,6.06202 c 18.82257,-10.8672 42.91863,-4.41069 53.78584,14.41188 10.86722,18.82257 4.4107,42.91862 -14.41187,53.78584 -18.82257,10.86722 -42.91863,4.41069 -53.78584,-14.41188 -10.86721,-18.82256 -4.4107,-42.91862 14.41187,-53.78584 z"
         style="fill:#000000;stroke:none" />
      <path
         inkscape:connector-curvature="0"
         id="path2854"
         d="m 237.31465,581.77463 c -17.13922,9.89534 -24.01395,30.731 -16.90402,48.59435 6.69566,0.009 13.48973,-1.66313 19.70171,-5.24962 17.13922,-9.89533 24.00028,-30.75467 16.89034,-48.61803 -6.69566,-0.009 -13.47605,1.68682 -19.68803,5.2733 z"
         style="fill:#f2f2f2;fill-opacity:0.62380952;stroke:none" />
    </g>
  </g>
</svg>
