<?xml version="1.0" encoding="utf-8"?>
<!-- Generator: Adobe Illustrator 23.0.3, SVG Export Plug-In . SVG Version: 6.00 Build 0)  -->
<svg version="1.1" id="Capa_1" xmlns="http://www.w3.org/2000/svg" xmlns:xlink="http://www.w3.org/1999/xlink" x="0px" y="0px"
	 viewBox="0 0 1920 725.3" style="enable-background:new 0 0 1920 725.3;" xml:space="preserve">
<style type="text/css">
	.st0{fill:#519FD7;}
	.st1{clip-path:url(#SVGID_2_);}
	.st2{fill:url(#SVGID_3_);}
	.st3{fill:none;stroke:#717171;stroke-width:2.5788;}
	.st4{clip-path:url(#SVGID_5_);}
	.st5{fill:url(#SVGID_6_);}
	.st6{clip-path:url(#SVGID_8_);}
	.st7{fill:url(#SVGID_9_);}
	.st8{clip-path:url(#SVGID_11_);}
	.st9{fill:url(#SVGID_12_);}
</style>
<g>
	<path class="st0" d="M357.4,717.6c-3.5,0-7-0.1-10.5-0.2l72.4-199.1H519c17.5,0,36.7-13.5,42.7-29.9l78.6-215.9
		c12.9-35.3-7.4-64.3-45-64.3H457L341,527.2h0L275.1,708C119,670.9,2.9,530.6,2.9,363.1c0-162.6,109.5-299.6,258.8-341.4
		l-67.9,186.6h0L81,518.3l75.1,0l96-263.4h56.5l-96,263.4l75.1,0l89.4-245.8c12.9-35.3-7.4-64.3-45-64.3H269L341.5,9
		c5.3-0.2,10.6-0.4,15.9-0.4c195.8,0,354.5,158.7,354.5,354.5C711.9,558.9,553.2,717.6,357.4,717.6z M571.9,254.7h-56.4l-79,216.9
		h56.4L571.9,254.7z"/>
	<g>
		<defs>
			<path id="SVGID_1_" d="M1209.4,517.1h-25.8c-42.7,0-64.8-34.5-49.3-77.2c0,0,0-0.1,0-0.1l56.3-154.7
				c15.5-42.7,62.7-77.3,105.4-77.4c0,0,0.1,0,0.1,0h103.2l-18.8,51.6h-77.4c-14.2,0-30,11.6-35.2,25.8l0,0l-56.3,154.7
				c-5.2,14.2,2.2,25.8,16.4,25.8h77.4l-18.8,51.6H1209.4z"/>
		</defs>
		<clipPath id="SVGID_2_">
			<use xlink:href="#SVGID_1_"  style="overflow:visible;"/>
		</clipPath>
		<g id="Enmascarar_grupo_1_8_" class="st1">
			<g id="Rect치ngulo_209_8_" transform="translate(926 475)">
				
					<linearGradient id="SVGID_3_" gradientUnits="userSpaceOnUse" x1="-385.0242" y1="186.4024" x2="-385.0165" y2="189.3061" gradientTransform="matrix(394 0 46.9522 -129 143322.8281 24161.5664)">
					<stop  offset="0" style="stop-color:#010101"/>
					<stop  offset="1" style="stop-color:#555554"/>
				</linearGradient>
				<polygon class="st2" points="13.5,-280.9 1029.5,-280.9 908.4,51.8 -107.6,51.8 				"/>
				<polygon class="st3" points="14.3,-279.6 1027.7,-279.6 907.6,50.5 -105.9,50.5 				"/>
			</g>
		</g>
	</g>
	<g>
		<defs>
			<path id="SVGID_4_" d="M1732.3,285c5.2-14.2,20.9-25.8,35.2-25.8h128.9l18.8-51.6h-154.9c-42.7,0-89.9,34.7-105.4,77.4l-9.4,25.8
				c0,0,0,0.1,0,0.1c-15.5,42.7,6.5,77.3,49.3,77.2l0.1-0.3c1.6,0.2,3.3,0.3,5.1,0.3h46.4c14.2,0,21.6,11.6,16.4,25.8l-9.4,25.8
				c-5.2,14.2-20.9,25.8-35.2,25.8h-128.9l-18.8,51.6h154.7c0,0,0.1,0,0.1,0c42.7,0,89.9-34.7,105.4-77.4l9.4-25.8l0-0.1
				c15.5-42.7-6.5-77.3-49.2-77.3h-51.6c-14.2,0-21.6-11.6-16.4-25.8L1732.3,285z"/>
		</defs>
		<clipPath id="SVGID_5_">
			<use xlink:href="#SVGID_4_"  style="overflow:visible;"/>
		</clipPath>
		<g id="Enmascarar_grupo_1_7_" class="st4">
			<g id="Rect치ngulo_209_7_" transform="translate(926 475)">
				
					<linearGradient id="SVGID_6_" gradientUnits="userSpaceOnUse" x1="-385.0242" y1="186.4024" x2="-385.0165" y2="189.3061" gradientTransform="matrix(394 0 46.9522 -129 143322.8281 24161.5664)">
					<stop  offset="0" style="stop-color:#010101"/>
					<stop  offset="1" style="stop-color:#555554"/>
				</linearGradient>
				<polygon class="st5" points="13.5,-280.9 1029.5,-280.9 908.4,51.8 -107.6,51.8 				"/>
				<polygon class="st3" points="14.3,-279.6 1027.7,-279.6 907.6,50.5 -105.9,50.5 				"/>
			</g>
		</g>
	</g>
	<g>
		<defs>
			<path id="SVGID_7_" d="M1010.2,285c5.2-14.2,20.9-25.8,35.2-25.8h128.9l18.8-51.6h-154.9c-42.7,0-89.9,34.7-105.4,77.4l-9.4,25.8
				c0,0,0,0.1,0,0.1c-15.5,42.7,6.5,77.3,49.3,77.2l0.1-0.3c1.6,0.2,3.3,0.3,5.1,0.3h46.4c14.2,0,21.6,11.6,16.4,25.8l-9.4,25.8
				c-5.2,14.2-20.9,25.8-35.2,25.8H867.2l-18.8,51.6h154.7c0,0,0.1,0,0.1,0c42.7,0,89.9-34.7,105.4-77.4l9.4-25.8c0,0,0-0.1,0-0.1
				c15.5-42.7-6.5-77.3-49.3-77.2h-51.6c-14.2,0-21.6-11.6-16.4-25.8L1010.2,285z"/>
		</defs>
		<clipPath id="SVGID_8_">
			<use xlink:href="#SVGID_7_"  style="overflow:visible;"/>
		</clipPath>
		<g id="Enmascarar_grupo_1_6_" class="st6">
			<g id="Rect치ngulo_209_6_" transform="translate(926 475)">
				
					<linearGradient id="SVGID_9_" gradientUnits="userSpaceOnUse" x1="-385.0242" y1="186.4024" x2="-385.0165" y2="189.3061" gradientTransform="matrix(394 0 46.9522 -129 143322.8281 24161.5664)">
					<stop  offset="0" style="stop-color:#010101"/>
					<stop  offset="1" style="stop-color:#555554"/>
				</linearGradient>
				<polygon class="st7" points="13.5,-280.9 1029.5,-280.9 908.4,51.8 -107.6,51.8 				"/>
				<polygon class="st3" points="14.3,-279.6 1027.7,-279.6 907.6,50.5 -105.9,50.5 				"/>
			</g>
		</g>
	</g>
	<g>
		<defs>
			<path id="SVGID_10_" d="M1587.5,208l0.1-0.4h-162.5l-18.8,51.6h128.9c14.2,0,21.6,11.6,16.4,25.8l-56.3,154.7
				c-5.2,14.2-20.9,25.8-35.2,25.8h-51.6l65.9-181.2h-77.4l-84.7,232.8h154.7c0,0,0.1,0,0.1,0c42.7,0,89.9-34.7,105.4-77.4
				l56.3-154.7C1643.6,245.2,1625.6,211.9,1587.5,208z"/>
		</defs>
		<clipPath id="SVGID_11_">
			<use xlink:href="#SVGID_10_"  style="overflow:visible;"/>
		</clipPath>
		<g id="Enmascarar_grupo_1_1_" class="st8">
			<g id="Rect치ngulo_209_1_" transform="translate(926 475)">
				
					<linearGradient id="SVGID_12_" gradientUnits="userSpaceOnUse" x1="-385.0242" y1="186.4024" x2="-385.0165" y2="189.3061" gradientTransform="matrix(394 0 46.9522 -129 143322.8281 24161.5664)">
					<stop  offset="0" style="stop-color:#010101"/>
					<stop  offset="1" style="stop-color:#555554"/>
				</linearGradient>
				<polygon class="st9" points="13.5,-280.9 1029.5,-280.9 908.4,51.8 -107.6,51.8 				"/>
				<polygon class="st3" points="14.3,-279.6 1027.7,-279.6 907.6,50.5 -105.9,50.5 				"/>
			</g>
		</g>
	</g>
</g>
</svg>
